<svg id="Group_367" data-name="Group 367" xmlns="http://www.w3.org/2000/svg" xmlns:xlink="http://www.w3.org/1999/xlink" width="1129.18" height="752.787" viewBox="0 0 1129.18 752.787">
  <defs>
    <clipPath id="clip-path">
      <rect id="Rectangle_33" data-name="Rectangle 33" width="1129.18" height="752.787" fill="#fff" stroke="#707070" stroke-width="1"/>
    </clipPath>
    <clipPath id="clip-path-2">
      <path id="Path_8" data-name="Path 8" d="M1129.18,744V8.783A8.891,8.891,0,0,0,1120.4,0H8.783A8.891,8.891,0,0,0,0,8.783V744a8.891,8.891,0,0,0,8.783,8.783H1120.4A8.728,8.728,0,0,0,1129.18,744Z"/>
    </clipPath>
    <clipPath id="clip-path-3">
      <path id="Path_5" data-name="Path 5" d="M1026.359,2.42c149.8,22.333,156.078,141.524,108.4,208.02-67.249,94.1-128.726,78.792-34.879,233.615,31.868,52.444,44.163,119.693,20.074,177.658-17.314,41.654-53.2,76.031-96.608,88.578-24.089,7.026-49.684,7.528-74.275,12.3s-50.186,14.554-64.489,35.381c-13.8,19.823-15.056,45.92-11.794,70.009,8.03,57.714,39.647,110.66,42.407,169.126,2.258,49.433-14.052,106.143-48.931,142.026C820.6,1186.3,749.584,1196.339,687.1,1199.852c-73.271,4.266-147.044-6.775-216.552-29.359-89.08-29.108-171.384-77.035-244.656-135.5C160.654,982.8,101.686,921.572,60.031,849.3-5.963,734.881-44.1,548.441,90.394,466.638c161.849-98.615,266.236,72.267,275.018-95.855,5.269-100.622,77.286-257.7,273.763-179.414C835.4,269.91,810.811-29.7,1026.359,2.42Z"/>
    </clipPath>
    <clipPath id="clip-path-4">
      <path id="Path_7" data-name="Path 7" d="M1026.359,2.42c149.8,22.333,156.078,141.524,108.4,208.02-67.249,94.1-128.726,78.792-34.879,233.615,31.868,52.444,44.163,119.693,20.074,177.658-17.314,41.654-53.2,76.031-96.608,88.578-24.089,7.026-49.684,7.528-74.275,12.3s-50.186,14.554-64.489,35.381c-13.8,19.823-15.056,45.92-11.794,70.009,8.03,57.714,39.647,110.66,42.407,169.126,2.258,49.433-14.052,106.143-48.931,142.026C820.6,1186.3,749.584,1196.339,687.1,1199.852c-73.271,4.266-147.044-6.775-216.552-29.359-89.08-29.108-171.384-77.035-244.656-135.5C160.654,982.8,101.686,921.572,60.031,849.3-5.963,734.881-44.1,548.441,90.394,466.638c161.849-98.615,266.236,72.267,275.018-95.855,5.269-100.622,77.286-257.7,273.763-179.414C835.4,269.91,810.811-29.7,1026.359,2.42Z" fill="#ffe77d"/>
    </clipPath>
  </defs>
  <g id="Group_183" data-name="Group 183" transform="translate(0 0)">
    <g id="Group_40" data-name="Group 40">
      <g id="Group_5" data-name="Group 5">
        <g id="Mask_Group_1" data-name="Mask Group 1" clip-path="url(#clip-path)">
          <path id="Path_2" data-name="Path 2" d="M1026.359,2.42c149.8,22.333,156.078,141.524,108.4,208.02-67.249,94.1-128.726,78.792-34.879,233.615,31.868,52.444,44.163,119.693,20.074,177.658-17.314,41.654-53.2,76.031-96.608,88.578-24.089,7.026-49.684,7.528-74.275,12.3s-50.186,14.554-64.489,35.381c-13.8,19.823-15.056,45.92-11.794,70.009,8.03,57.714,39.647,110.66,42.407,169.126,2.258,49.433-14.052,106.143-48.931,142.026C820.6,1186.3,749.584,1196.339,687.1,1199.852c-73.271,4.266-147.044-6.775-216.552-29.359-89.08-29.108-171.384-77.035-244.656-135.5C160.654,982.8,101.686,921.572,60.031,849.3-5.963,734.881-44.1,548.441,90.394,466.638c161.849-98.615,266.236,72.267,275.018-95.855,5.269-100.622,77.286-257.7,273.763-179.414C835.4,269.91,810.811-29.7,1026.359,2.42Z" transform="translate(456.129 -117.596)" fill="#85ebf9"/>
        </g>
        <g id="Group_4" data-name="Group 4" transform="translate(0 0)" clip-path="url(#clip-path-2)">
          <g id="Group_2" data-name="Group 2" transform="translate(456.129 -117.596)" clip-path="url(#clip-path-3)">
            <path id="Path_4" data-name="Path 4" d="M.077,633.058c3.011,101.375,81.8,114.925,129.73,88.578,67.751-37.388,62.481-79.544,158.085-4.768,32.37,25.344,76.031,38.894,116.682,27.351,29.108-8.281,54.7-29.359,66.5-57.212,6.524-15.558,9.034-32.37,14.052-48.429s13.8-32.119,28.606-40.149c14.3-7.779,31.868-6.273,47.426-2.258,37.639,9.786,70.26,35.13,109.154,41.654,32.621,5.52,71.766-1,98.364-21.329,34.879-26.6,47.175-73.02,54.451-114.173,8.532-48.429,7.277-98.113-2.509-146.291-12.3-61.478-37.639-120.195-70.762-173.392-29.359-47.426-65.492-91.589-110.409-124.963-70.762-52.946-191.71-93.095-256.7-10.037-78.29,99.87,27.1,182.676-85.316,175.4-67.249-4.517-177.407,31.115-141.022,167.871C192.79,527.166-4.44,487.017.077,633.058Z" transform="translate(24.323 17.762)" fill="#c3adeb"/>
          </g>
          <g id="Group_3" data-name="Group 3" transform="translate(456.129 -117.596)" clip-path="url(#clip-path-4)">
            <path id="Path_6" data-name="Path 6" d="M8.649,727.687c34.879,89.08,109.4,76.031,143.531,37.388,48.429-54.7,30.362-90.585,138.764-54.451,36.887,12.3,80.046,10.288,112.165-12.8,23.336-16.561,39.145-43.662,40.9-72.017,1-15.808-2.258-31.617-3.011-47.426-.5-15.809,2.007-32.872,12.546-44.665,10.288-11.292,26.1-15.808,41.4-17.063,36.636-3.262,73.773,8.783,110.158,2.258,30.864-5.52,63.485-23.587,80.548-50.186,22.584-34.879,18.82-79.8,12.045-118.94-7.779-45.669-24.842-89.582-48.68-129.229-30.613-50.688-71.766-94.6-118.188-131.487C489.428,56.2,443.508,28.6,393.071,13.042c-79.8-24.591-199.99-21.58-231.356,72.769-37.89,113.671,82.054,153.819-20.074,182.927C80.414,286.3-6.156,352.8,69.875,462.707,146.408,572.111-41.537,599.463,8.649,727.687Z" transform="translate(26.792 -91.672)" fill="#ffe77d"/>
          </g>
        </g>
      </g>
    </g>
  </g>
</svg>
