<svg xmlns="http://www.w3.org/2000/svg" width="48" height="47.26" viewBox="0 0 48 47.26">
  <path id="icons8-github-filled" d="M27,3a23.986,23.986,0,0,0-5.816,47.26A3.5,3.5,0,0,1,21,49.094v-4.1H17.984a4.176,4.176,0,0,1-3.81-2.018c-.786-1.458-.922-3.688-2.87-5.052-.578-.454-.138-.972.528-.9a6.289,6.289,0,0,1,3.21,2.444C16,40.718,16.448,41,18.234,41a22.931,22.931,0,0,0,3.382-.242,7.529,7.529,0,0,1,3.176-3.924c-7.992-.822-11.806-4.8-11.806-10.2a9.809,9.809,0,0,1,2.672-6.466c-.552-1.88-1.246-5.714.212-7.174a8.354,8.354,0,0,1,6.292,2.962,18.147,18.147,0,0,1,11.672,0A8.348,8.348,0,0,1,40.13,13c1.464,1.462.762,5.312.2,7.188A9.806,9.806,0,0,1,42.99,26.64c0,5.394-3.808,9.368-11.788,10.194C33.4,37.98,35,41.2,35,43.626v5.468a3.519,3.519,0,0,1-.07.536A23.987,23.987,0,0,0,27,3Z" transform="translate(-3 -3)"/>
</svg>
