<svg xmlns="http://www.w3.org/2000/svg" width="266.102" height="97.323" viewBox="0 0 266.102 97.323">
  <g id="Group_1" data-name="Group 1" transform="translate(-468.149 -347.339)">
    <path id="Path_5" data-name="Path 5" d="M488.125,376.667c-.479,0-.63-.3-.335-.671l2.709-3.385a2.046,2.046,0,0,1,1.409-.672l46.312-.021c.479,0,.66.323.4.718l-2.152,3.291a1.8,1.8,0,0,1-1.343.719Z"/>
    <path id="Path_6" data-name="Path 6" d="M468.635,388.338c-.479,0-.63-.3-.334-.671l2.708-3.384a2.046,2.046,0,0,1,1.408-.673l59.144-.04a.583.583,0,0,1,.6.81l-1.048,3.107a1.287,1.287,0,0,1-1.144.811Z"/>
    <path id="Path_7" data-name="Path 7" d="M500.036,399.991c-.479,0-.68-.335-.447-.745l1.84-3.236a1.648,1.648,0,0,1,1.3-.747l25.953-.021a.769.769,0,0,1,.789.849l-.295,3.029a.973.973,0,0,1-.954.85Z"/>
    <path id="Path_8" data-name="Path 8" d="M634.539,374.422c-8.14,1.97-13.735,3.611-21.742,5.582-1.977.487-2.126.67-3.789-1.221a17.018,17.018,0,0,0-6.081-4.821c-8.166-3.933-16.085-2.844-23.4,1.856-8.766,5.634-13.368,13.778-13.258,24.179a20.075,20.075,0,0,0,17.513,19.957c8.76,1.2,16.172-1.888,22.063-8.338,1.23-1.347,2.226-2.9,3.551-4.649H584.416c-2.7,0-3.335-1.624-2.41-3.814,1.636-3.873,4.8-10.577,6.609-13.86a3.559,3.559,0,0,1,3.183-2.083H639c-.23,3.447-.227,6.9-.733,10.29a53.255,53.255,0,0,1-10.632,24.94c-9.295,12.07-21.469,19.568-36.891,21.543-12.677,1.624-24.471-.8-34.8-8.432a39.859,39.859,0,0,1-16.473-28.162c-1.7-13.877,2.417-26.234,10.971-37.189a57.573,57.573,0,0,1,36.3-21.938c12.151-2.158,23.79-.7,34.308,6.175a40.417,40.417,0,0,1,15.01,17.95c.465,1.05-.064,1.682-1.523,2.035"/>
    <path id="Path_9" data-name="Path 9" d="M708.277,393.331c-.14-1.652-.141-2.953-.373-4.214-2.309-12.552-14.1-19.62-26.451-16.927-12.117,2.642-19.843,10.129-22.655,22.073a20.783,20.783,0,0,0,11.886,23.967c7.111,3.1,14.29,2.629,21.147-.775,10.189-5.057,15.779-13.2,16.446-24.124m-30.918,51.331c-11.855-.218-22.563-3.555-31.577-11.173a39.633,39.633,0,0,1-13.995-24.516c-2.323-14.324,1.72-27.027,10.559-38.358,9.482-12.155,20.9-18.54,36.247-21.231,13.193-2.313,25.663-.978,36.895,6.535,10.269,6.87,16.635,16.114,18.243,28.272,2.258,17.078-2.862,31.077-14.916,43.064a59.079,59.079,0,0,1-31.094,16.223c-3.4.658-6.905.8-10.362,1.184"/>
  </g>
</svg>
