<svg xmlns="http://www.w3.org/2000/svg" width="48" height="48" viewBox="0 0 48 48">
  <g id="icons8-google-groups" transform="translate(-6 -6)">
    <path id="Path_319" data-name="Path 319" d="M50,6H10a4,4,0,0,0-4,4V54l11.406-9.333H50a4,4,0,0,0,4-4V10A4,4,0,0,0,50,6Z" fill="#cfd8dc"/>
    <path id="Path_320" data-name="Path 320" d="M13.2,9H46.8A4.148,4.148,0,0,1,51,13.091V54L34.2,40.364h-21A4.148,4.148,0,0,1,9,36.273V13.091A4.148,4.148,0,0,1,13.2,9Z" fill="#42a5f5"/>
    <path id="Path_321" data-name="Path 321" d="M31,19a2,2,0,1,1-2-2,2,2,0,0,1,2,2" transform="translate(7.875 4.125)" fill="#bbdefb"/>
    <path id="Path_322" data-name="Path 322" d="M33,24.668a4.333,4.333,0,0,0-8,0V26h8Z" transform="translate(8.143 6)" fill="#bbdefb"/>
    <path id="Path_323" data-name="Path 323" d="M24,17a3,3,0,1,1-3-3,3,3,0,0,1,3,3" transform="translate(4.8 3.2)" fill="#e3f2fd"/>
    <path id="Path_324" data-name="Path 324" d="M27,24.336A6.718,6.718,0,0,0,21,21a6.718,6.718,0,0,0-6,3.336V26H27Z" transform="translate(4.5 5.806)" fill="#e3f2fd"/>
  </g>
</svg>
