<svg xmlns="http://www.w3.org/2000/svg" width="48" height="38.662" viewBox="0 0 48 38.662">
  <g id="icons8-twitter" transform="translate(-5.996 -9)">
    <path id="Path_325" data-name="Path 325" d="M54,13.572a19.925,19.925,0,0,1-5.661,1.547,9.852,9.852,0,0,0,4.333-5.411,19.738,19.738,0,0,1-6.255,2.37,9.825,9.825,0,0,0-16.774,8.905,28.033,28.033,0,0,1-20.295-10.2A9.629,9.629,0,0,0,8.012,15.7a9.733,9.733,0,0,0,4.38,8.124A9.994,9.994,0,0,1,7.928,22.6v.115a9.8,9.8,0,0,0,7.895,9.577,9.856,9.856,0,0,1-2.588.349,10.311,10.311,0,0,1-1.854-.182,9.857,9.857,0,0,0,9.2,6.781A19.913,19.913,0,0,1,8.345,43.423,19.416,19.416,0,0,1,6,43.283a28.163,28.163,0,0,0,15.1,4.38c18.113,0,28.023-14.873,28.023-27.778,0-.422-.016-.844-.036-1.255A19.483,19.483,0,0,0,54,13.572" transform="translate(0)" fill="#03a9f4"/>
  </g>
</svg>
